<svg xmlns="http://www.w3.org/2000/svg" width="820" height="460" viewBox="0 0 820 460" font-family="Inter, -apple-system, 'Segoe UI', Helvetica, Arial, sans-serif">
<rect width="820" height="460" fill="#ffffff" rx="12"/>
<text x="24.0" y="34.0" font-size="19" fill="#1d1b2e" text-anchor="start" font-weight="700">Rendimiento anual del pool y de cada tramo según la mora</text>
<text x="24.0" y="56.0" font-size="13" fill="#6b6880" text-anchor="start" font-weight="normal">Régimen estable, cartera con 6 cuotas. Recupero del fiador 80%</text>
<line x1="78" x2="796" y1="333.3" y2="333.3" stroke="#1d1b2e" stroke-width="1.2"/>
<text x="70.0" y="337.3" font-size="11" fill="#6b6880" text-anchor="end" font-weight="normal">0%</text>
<line x1="78" x2="796" y1="290.0" y2="290.0" stroke="#e6e4ef" stroke-width="1"/>
<text x="70.0" y="294.0" font-size="11" fill="#6b6880" text-anchor="end" font-weight="normal">25%</text>
<line x1="78" x2="796" y1="246.7" y2="246.7" stroke="#e6e4ef" stroke-width="1"/>
<text x="70.0" y="250.7" font-size="11" fill="#6b6880" text-anchor="end" font-weight="normal">50%</text>
<line x1="78" x2="796" y1="203.3" y2="203.3" stroke="#e6e4ef" stroke-width="1"/>
<text x="70.0" y="207.3" font-size="11" fill="#6b6880" text-anchor="end" font-weight="normal">75%</text>
<line x1="78" x2="796" y1="160.0" y2="160.0" stroke="#e6e4ef" stroke-width="1"/>
<text x="70.0" y="164.0" font-size="11" fill="#6b6880" text-anchor="end" font-weight="normal">100%</text>
<line x1="78" x2="796" y1="116.7" y2="116.7" stroke="#e6e4ef" stroke-width="1"/>
<text x="70.0" y="120.7" font-size="11" fill="#6b6880" text-anchor="end" font-weight="normal">125%</text>
<text x="78.0" y="386.0" font-size="11" fill="#6b6880" text-anchor="middle" font-weight="normal">10%</text>
<text x="167.8" y="386.0" font-size="11" fill="#6b6880" text-anchor="middle" font-weight="normal">15%</text>
<text x="257.5" y="386.0" font-size="11" fill="#6b6880" text-anchor="middle" font-weight="normal">20%</text>
<text x="347.2" y="386.0" font-size="11" fill="#6b6880" text-anchor="middle" font-weight="normal">25%</text>
<text x="437.0" y="386.0" font-size="11" fill="#6b6880" text-anchor="middle" font-weight="normal">30%</text>
<text x="526.8" y="386.0" font-size="11" fill="#6b6880" text-anchor="middle" font-weight="normal">35%</text>
<text x="616.5" y="386.0" font-size="11" fill="#6b6880" text-anchor="middle" font-weight="normal">40%</text>
<text x="706.3" y="386.0" font-size="11" fill="#6b6880" text-anchor="middle" font-weight="normal">45%</text>
<text x="796.0" y="386.0" font-size="11" fill="#6b6880" text-anchor="middle" font-weight="normal">50%</text>
<text x="437.0" y="406.0" font-size="12" fill="#6b6880" text-anchor="middle" font-weight="normal">Mora final (% de planes que no terminan de pagar)</text>
<text x="22" y="238.0" font-size="12" fill="#6b6880" text-anchor="middle" transform="rotate(-90 22 238.0)">Rendimiento anual</text>
<line x1="78" x2="796" y1="325.5" y2="325.5" stroke="#9ca3af" stroke-dasharray="3 4" stroke-width="1.2"/>
<text x="86.0" y="320.5" font-size="11" fill="#9ca3af" text-anchor="start" font-weight="600">Kamino ~4,5%</text>
<polyline points="78.0,278.9 122.9,281.7 167.8,284.6 212.6,287.5 257.5,290.3 302.4,293.2 347.2,296.1 392.1,299.0 437.0,301.8 481.9,304.7 526.8,307.6 571.6,310.5 616.5,313.3 661.4,316.2 706.3,319.1 751.1,321.9 796.0,324.8" fill="none" stroke="#7c3aed" stroke-width="2.6" stroke-linejoin="round" />
<polyline points="78.0,319.5 122.9,319.5 167.8,319.5 212.6,319.5 257.5,319.5 302.4,319.5 347.2,319.5 392.1,319.5 437.0,319.5 481.9,319.5 526.8,319.5 571.6,319.5 616.5,319.5 661.4,319.5 706.3,319.5 751.1,319.5 796.0,319.5" fill="none" stroke="#0284c7" stroke-width="2.6" stroke-linejoin="round" />
<polyline points="78.0,116.4 122.9,130.8 167.8,145.1 212.6,159.5 257.5,173.9 302.4,188.2 347.2,202.6 392.1,217.0 437.0,231.3 481.9,245.7 526.8,260.0 571.6,274.4 616.5,288.8 661.4,303.1 706.3,317.5 751.1,331.9 796.0,346.2" fill="none" stroke="#0f9d6b" stroke-width="2.6" stroke-linejoin="round" />
<line x1="24.0" x2="46.0" y1="84" y2="84" stroke="#7c3aed" stroke-width="3" />
<text x="52.0" y="88.0" font-size="12" fill="#1d1b2e" text-anchor="start" font-weight="normal">Pool total</text>
<line x1="281.3333333333333" x2="303.3333333333333" y1="84" y2="84" stroke="#0284c7" stroke-width="3" />
<text x="309.3" y="88.0" font-size="12" fill="#1d1b2e" text-anchor="start" font-weight="normal">Senior (8% fijo)</text>
<line x1="538.6666666666666" x2="560.6666666666666" y1="84" y2="84" stroke="#0f9d6b" stroke-width="3" />
<text x="566.7" y="88.0" font-size="12" fill="#1d1b2e" text-anchor="start" font-weight="normal">Junior (primera pérdida)</text>
<text x="24.0" y="422.0" font-size="11" fill="#6b6880" text-anchor="start" font-weight="normal">Senior = 80% del pool, cobra 8% fijo y primero. Junior = 20%, absorbe las primeras pérdidas.</text>
<text x="24.0" y="438.0" font-size="11" fill="#6b6880" text-anchor="start" font-weight="normal">Referencia: Kamino ~4,5% (USDC en Solana, oct-2026). Comparación completa en el gráfico 08. No es un pronóstico.</text>
</svg>